<?xml version="1.0" encoding="utf-8"?>
<!-- Generator: Adobe Illustrator 28.1.0, SVG Export Plug-In . SVG Version: 6.00 Build 0)  -->
<svg version="1.1" id="Layer_1" xmlns="http://www.w3.org/2000/svg" xmlns:xlink="http://www.w3.org/1999/xlink" x="0px" y="0px"
	 viewBox="0 0 33.3 66.9" style="enable-background:new 0 0 33.3 66.9;" xml:space="preserve">
<style type="text/css">
	.st0{fill:#FFFFFF;}
	.st1{fill:#F5F5F5;}
</style>
<path class="st1" d="M31.7,42.8c0.7-1.2,1.4-2.6,1.6-4.3c-1.7,0.2-3.1,0.9-4.3,1.6c-2.7,1.6-5.1,4-6.5,6.8c0.6-2.3,1-4.9,1.4-7.9
	c4.1-2,6.8-6,8.1-10.2c0.4-1.5,0.7-3,0.5-4.8c-1.7,0.7-2.9,1.7-3.9,2.8c-1.9,2-3.5,4.5-4.3,7.2c0-2.6-0.3-5-0.8-7.1
	c3-3.1,4.2-7.5,4-11.7c-0.1-1.4-0.4-2.9-1.1-4.4c-1.2,1.2-2,2.4-2.6,3.7c-1.2,2.7-1.7,5.7-1.4,8.6c-0.9-2.3-2-4.3-3.1-6
	c0.1,0.1,0.2,0.3,0.3,0.4c2.1-4.2,1.8-9.1,0.1-13.4c-0.6-1.4-1.4-2.8-2.6-4.1c-0.9,1.6-1.2,3.1-1.4,4.7c-0.3,3.6,0.3,7.4,2.2,10.5
	c-1.5-1.9-2.9-3.3-3.9-4.2c-1.9-3.9-5.4-6.8-9.3-8.4C3.1,2.1,1.7,1.7,0,1.7c0.6,1.6,1.6,2.9,2.5,4c2.7,3,6.3,5.2,10.2,5.7
	c1.4,1.1,4.5,4,7,8.6c-2-2.6-4.7-4.6-7.8-5.9c-1.5-0.6-3.1-1-5-1c0.6,1.8,1.5,3.2,2.5,4.5c3,3.6,7.3,6.3,12.1,6.5
	c1.3,3.6,2,8,1.6,13.2c-0.6-3.3-2.3-6.4-4.7-8.9c-1.1-1.1-2.3-2.1-3.9-2.8c-0.2,1.8,0.1,3.3,0.5,4.8c1.2,4.2,3.9,8,7.8,10.1
	c-0.7,4.8-1.6,8.5-2.9,11.5c0.7-3.4,0.1-7-1.2-10.2c-0.6-1.4-1.4-2.8-2.7-4.2c-0.9,1.7-1.2,3.2-1.4,4.8c-0.4,4.5,0.7,9.1,3.6,12.6
	c-1.9,2.8-4.3,4.8-7.6,6.7c2.3-3.3,2.9-7.5,2.3-11.4c-0.3-1.4-0.6-2.9-1.5-4.3c-1.1,1.3-1.8,2.6-2.3,4c-1.3,4-1.4,8.5,0.6,12.3
	c-2.3,1.3-5,2.5-8.1,3.8l0.4,0.9c4.2-1.9,7.7-3.5,10.5-5.2c4.6,1.4,9.5,0.4,13.5-2c1.4-0.8,2.7-1.8,3.8-3.3c-1.8-0.6-3.4-0.8-5-0.7
	c-2.5,0.1-4.9,0.7-7.2,1.7c1.7-1.9,3-4.2,4-7.2C25.8,49.4,29.4,46.5,31.7,42.8z"/>
</svg>
